<svg version="1.1" id="Layer_1" xmlns="http://www.w3.org/2000/svg" xmlns:xlink="http://www.w3.org/1999/xlink" x="0px" y="0px"
	 width="100%" viewBox="0 0 2000 1500" enable-background="new 0 0 2000 1500" xml:space="preserve">
<path fill="#000000" opacity="1.000000" stroke="none" 
	d="
M1403.000000,1501.000000 
	C935.333496,1501.000000 468.166931,1501.000000 1.000313,1501.000000 
	C1.000209,1001.000305 1.000209,501.000580 1.000104,1.000649 
	C667.666199,1.000432 1334.332397,1.000432 2000.998901,1.000216 
	C2000.999268,500.999359 2000.999268,1000.998718 2000.999634,1500.999023 
	C1801.833374,1501.000000 1602.666626,1501.000000 1403.000000,1501.000000 
M536.982849,662.923950 
	C537.665894,664.928833 538.363953,666.928772 539.029846,668.939392 
	C556.043640,720.314392 573.066956,771.686157 590.061523,823.067505 
	C607.466187,875.688904 624.840454,928.320374 642.231323,980.946289 
	C658.541687,1030.302368 674.856323,1079.657104 691.114136,1129.542969 
	C691.394348,1129.744751 691.674561,1129.946655 691.983215,1130.923218 
	C692.708740,1133.098633 693.439880,1135.272339 694.158813,1137.449951 
	C706.143982,1173.753052 718.156372,1210.047241 730.066833,1246.375000 
	C731.236389,1249.942139 733.236450,1251.194336 736.952209,1251.074585 
	C744.606934,1250.827637 752.278442,1250.870850 759.936279,1251.063477 
	C763.045776,1251.141724 764.531555,1250.231812 765.667847,1247.129028 
	C773.201050,1226.558472 781.031860,1206.097168 788.715393,1185.581421 
	C812.050964,1123.273315 835.376648,1060.961426 858.681580,998.641785 
	C884.828857,928.721924 910.939697,858.788574 937.083923,788.867676 
	C961.141907,724.526550 985.217651,660.192017 1009.302856,595.861145 
	C1011.762756,589.290955 1014.341431,582.765198 1017.257996,575.199280 
	C1022.420898,590.091125 1027.231689,603.826965 1031.947632,617.595276 
	C1047.989990,664.431580 1063.974121,711.287842 1080.027466,758.120361 
	C1095.974976,804.643982 1111.990723,851.144287 1127.955322,897.662048 
	C1143.973145,944.334534 1159.978271,991.011353 1175.964111,1037.694824 
	C1192.003296,1084.533569 1207.989624,1131.390381 1224.042236,1178.224487 
	C1231.882690,1201.098877 1239.881836,1223.919067 1247.631104,1246.823975 
	C1248.496826,1249.382446 1249.604248,1250.206787 1252.165161,1250.168945 
	C1260.329956,1250.047852 1268.498291,1250.065430 1276.663696,1250.159424 
	C1279.166626,1250.188110 1280.442017,1249.508423 1281.222412,1246.833374 
	C1283.281250,1239.775513 1285.851074,1232.868286 1288.140747,1225.875977 
	C1302.028931,1183.462280 1315.862915,1141.030762 1329.781982,1098.627075 
	C1338.497437,1072.076050 1347.388672,1045.582520 1356.096191,1019.028809 
	C1370.003662,976.617310 1383.800537,934.169556 1397.690063,891.752197 
	C1405.364624,868.315063 1413.147949,844.913452 1420.854736,821.486816 
	C1428.518555,798.191406 1436.141113,774.882446 1443.794556,751.583557 
	C1451.793091,727.234009 1459.792969,702.885010 1467.817261,678.543945 
	C1476.558716,652.027527 1485.362671,625.531677 1494.078979,599.007019 
	C1508.057861,556.467224 1522.064453,513.936157 1535.913696,471.354065 
	C1547.671509,435.203033 1559.184204,398.944916 1574.645508,364.167084 
	C1582.399048,346.726593 1591.457153,329.862823 1600.090576,312.821991 
	C1600.864014,311.295410 1602.709229,309.610321 1604.304443,309.308624 
	C1623.289185,305.717957 1642.324097,302.393585 1661.338623,298.959381 
	C1668.135864,297.731689 1674.913452,296.395966 1681.851562,295.080841 
	C1681.851562,287.574158 1681.851562,280.584320 1681.851562,273.594452 
	C1681.851562,266.485199 1681.851562,259.375946 1681.851562,251.902740 
	C1595.460693,256.043884 1509.726562,257.310699 1424.135010,250.728043 
	C1424.135010,266.395233 1424.135010,280.999756 1424.135010,295.415375 
	C1456.581787,299.411682 1488.695923,303.367004 1520.810669,307.322418 
	C1446.199707,551.266602 1363.903931,792.575989 1294.638672,1039.253540 
	C1293.475708,1036.873901 1292.547852,1035.595825 1292.202515,1034.176025 
	C1286.528564,1010.860840 1281.334961,987.420166 1275.202759,964.227295 
	C1268.333374,938.246399 1260.910156,912.402466 1253.217896,886.651184 
	C1243.436157,853.904541 1233.336670,821.249329 1223.014038,788.668884 
	C1212.879761,756.683105 1202.322021,724.831238 1191.899048,692.937256 
	C1181.425537,660.888245 1170.860718,628.868958 1160.387695,596.819824 
	C1149.907959,564.750183 1139.510254,532.653809 1129.043579,500.579987 
	C1118.532471,468.370483 1107.991699,436.170685 1097.443604,403.973297 
	C1087.649780,374.078339 1077.923584,344.160431 1067.917114,314.336670 
	C1066.432007,309.910461 1067.939941,308.991852 1071.717407,308.988007 
	C1072.549805,308.987152 1073.396118,309.054718 1074.212769,308.934082 
	C1101.136841,304.956696 1128.053833,300.929871 1154.982056,296.980347 
	C1167.035522,295.212494 1167.665527,295.372955 1169.471680,283.280579 
	C1171.030884,272.842407 1170.799072,262.179138 1166.720825,252.279404 
	C1161.861938,252.279404 1157.368286,252.125305 1152.888184,252.305679 
	C1131.833374,253.153275 1110.783691,254.825562 1089.729614,254.867142 
	C1015.495605,255.013763 941.240601,256.709717 867.040588,252.879623 
	C863.420837,252.692795 859.803162,252.463165 856.183167,252.281570 
	C847.284058,251.835083 838.384216,251.404968 828.248352,250.907623 
	C827.838440,261.441772 827.243042,271.471588 827.160950,281.505585 
	C827.129089,285.393463 828.128174,289.318604 828.945374,293.165649 
	C829.166199,294.205048 830.343994,295.704071 831.244446,295.829437 
	C837.428833,296.690247 843.662354,297.189148 849.868530,297.904724 
	C861.802673,299.280640 873.734558,300.678833 885.657349,302.149750 
	C898.063843,303.680359 910.443909,305.439941 922.868835,306.794159 
	C925.754333,307.108704 927.194946,307.919281 928.098999,310.749756 
	C932.056458,323.140045 936.161377,335.485168 940.368652,347.793396 
	C954.779785,389.952728 969.281311,432.081268 983.625305,474.263397 
	C984.252930,476.108917 984.197449,478.551117 983.556885,480.402893 
	C980.010010,490.656036 976.153442,500.801605 972.456970,511.003540 
	C950.428833,571.799316 928.386597,632.589966 906.406982,693.403198 
	C889.712585,739.593201 873.078125,785.804932 856.465576,832.024414 
	C841.539185,873.552429 826.379150,915.000061 811.893677,956.681763 
	C802.064087,984.966248 793.237915,1013.599121 783.903564,1042.056763 
	C783.289368,1043.929077 782.167908,1045.635010 781.282410,1047.418335 
	C779.635437,1046.335571 779.344604,1045.780273 779.201843,1045.189087 
	C774.481384,1025.653198 770.006165,1006.054626 765.020325,986.586853 
	C753.384583,941.153809 741.668213,895.739929 729.636230,850.410767 
	C725.290161,834.037354 719.902466,817.941895 715.074707,801.694458 
	C708.745728,780.395081 702.547668,759.056702 696.204041,737.761719 
	C691.231018,721.067627 686.047668,704.436096 681.091064,687.737183 
	C673.036560,660.600952 665.150085,633.414917 657.080017,606.283386 
	C651.171265,586.418274 645.007446,566.629150 639.090637,546.766418 
	C630.065979,516.470520 621.202515,486.126587 612.181885,455.829468 
	C606.228333,435.833252 600.037048,415.907745 594.099548,395.906860 
	C585.989441,368.587311 578.155457,341.184692 569.843323,313.927429 
	C568.591248,309.821625 569.904236,309.398773 573.127625,309.001526 
	C583.487732,307.724731 593.845215,306.409241 604.176758,304.921204 
	C624.445312,302.001984 644.701904,298.996094 664.940979,295.880402 
	C666.407349,295.654633 668.528748,294.535309 668.933594,293.349396 
	C673.660156,279.504944 673.216675,265.688965 668.542297,251.734421 
	C654.293640,252.507797 640.567139,253.565048 626.822205,253.927673 
	C604.706726,254.511124 582.578491,254.942123 560.456787,254.894272 
	C505.009064,254.774323 449.561615,254.407257 394.115051,254.001434 
	C382.331787,253.915207 370.552551,253.251083 358.772125,252.834320 
	C355.643524,252.723633 352.516937,252.551956 349.390228,252.392654 
	C340.018036,251.915161 330.646240,251.429916 321.172089,250.942459 
	C320.631409,255.817062 320.216644,260.067078 319.678833,264.301514 
	C318.462158,273.880737 318.675232,283.399353 321.148682,292.756409 
	C321.479248,294.006958 323.045837,295.636993 324.244568,295.831604 
	C329.914612,296.752106 335.657654,297.218079 341.371094,297.877289 
	C353.469635,299.273254 365.572021,300.638763 377.661499,302.109802 
	C390.216003,303.637360 402.743225,305.403351 415.314484,306.769257 
	C418.286041,307.092133 419.535278,308.079742 420.440521,310.923157 
	C425.219635,325.933929 430.268097,340.858856 435.210876,355.817596 
	C451.533081,405.214996 467.850067,454.614105 484.114166,504.543121 
	C484.394257,504.745148 484.674347,504.947144 484.982819,505.923889 
	C502.044922,557.620117 519.106995,609.316406 536.114136,661.543213 
	C536.394226,661.745239 536.674377,661.947205 536.982849,662.923950 
z"/>
<path fill="#FF4057" opacity="1.000000" stroke="none" 
	d="
M484.169037,504.012573 
	C467.850067,454.614105 451.533081,405.214996 435.210876,355.817596 
	C430.268097,340.858856 425.219635,325.933929 420.440521,310.923157 
	C419.535278,308.079742 418.286041,307.092133 415.314484,306.769257 
	C402.743225,305.403351 390.216003,303.637360 377.661499,302.109802 
	C365.572021,300.638763 353.469635,299.273254 341.371094,297.877289 
	C335.657654,297.218079 329.914612,296.752106 324.244568,295.831604 
	C323.045837,295.636993 321.479248,294.006958 321.148682,292.756409 
	C318.675232,283.399353 318.462158,273.880737 319.678833,264.301514 
	C320.216644,260.067078 320.631409,255.817062 321.172089,250.942459 
	C330.646240,251.429916 340.018036,251.915161 349.390228,252.392654 
	C352.516937,252.551956 355.643524,252.723633 358.772125,252.834320 
	C370.552551,253.251083 382.331787,253.915207 394.115051,254.001434 
	C449.561615,254.407257 505.009064,254.774323 560.456787,254.894272 
	C582.578491,254.942123 604.706726,254.511124 626.822205,253.927673 
	C640.567139,253.565048 654.293640,252.507797 668.542297,251.734421 
	C673.216675,265.688965 673.660156,279.504944 668.933594,293.349396 
	C668.528748,294.535309 666.407349,295.654633 664.940979,295.880402 
	C644.701904,298.996094 624.445312,302.001984 604.176758,304.921204 
	C593.845215,306.409241 583.487732,307.724731 573.127625,309.001526 
	C569.904236,309.398773 568.591248,309.821625 569.843323,313.927429 
	C578.155457,341.184692 585.989441,368.587311 594.099548,395.906860 
	C600.037048,415.907745 606.228333,435.833252 612.181885,455.829468 
	C621.202515,486.126587 630.065979,516.470520 639.090637,546.766418 
	C645.007446,566.629150 651.171265,586.418274 657.080017,606.283386 
	C665.150085,633.414917 673.036560,660.600952 681.091064,687.737183 
	C686.047668,704.436096 691.231018,721.067627 696.204041,737.761719 
	C702.547668,759.056702 708.745728,780.395081 715.074707,801.694458 
	C719.902466,817.941895 725.290161,834.037354 729.636230,850.410767 
	C741.668213,895.739929 753.384583,941.153809 765.020325,986.586853 
	C770.006165,1006.054626 774.481384,1025.653198 779.201843,1045.189087 
	C779.344604,1045.780273 779.635437,1046.335571 781.282410,1047.418335 
	C782.167908,1045.635010 783.289368,1043.929077 783.903564,1042.056763 
	C793.237915,1013.599121 802.064087,984.966248 811.893677,956.681763 
	C826.379150,915.000061 841.539185,873.552429 856.465576,832.024414 
	C873.078125,785.804932 889.712585,739.593201 906.406982,693.403198 
	C928.386597,632.589966 950.428833,571.799316 972.456970,511.003540 
	C976.153442,500.801605 980.010010,490.656036 983.556885,480.402893 
	C984.197449,478.551117 984.252930,476.108917 983.625305,474.263397 
	C969.281311,432.081268 954.779785,389.952728 940.368652,347.793396 
	C936.161377,335.485168 932.056458,323.140045 928.098999,310.749756 
	C927.194946,307.919281 925.754333,307.108704 922.868835,306.794159 
	C910.443909,305.439941 898.063843,303.680359 885.657349,302.149750 
	C873.734558,300.678833 861.802673,299.280640 849.868530,297.904724 
	C843.662354,297.189148 837.428833,296.690247 831.244446,295.829437 
	C830.343994,295.704071 829.166199,294.205048 828.945374,293.165649 
	C828.128174,289.318604 827.129089,285.393463 827.160950,281.505585 
	C827.243042,271.471588 827.838440,261.441772 828.248352,250.907623 
	C838.384216,251.404968 847.284058,251.835083 856.183167,252.281570 
	C859.803162,252.463165 863.420837,252.692795 867.040588,252.879623 
	C941.240601,256.709717 1015.495605,255.013763 1089.729614,254.867142 
	C1110.783691,254.825562 1131.833374,253.153275 1152.888184,252.305679 
	C1157.368286,252.125305 1161.861938,252.279404 1166.720825,252.279404 
	C1170.799072,262.179138 1171.030884,272.842407 1169.471680,283.280579 
	C1167.665527,295.372955 1167.035522,295.212494 1154.982056,296.980347 
	C1128.053833,300.929871 1101.136841,304.956696 1074.212769,308.934082 
	C1073.396118,309.054718 1072.549805,308.987152 1071.717407,308.988007 
	C1067.939941,308.991852 1066.432007,309.910461 1067.917114,314.336670 
	C1077.923584,344.160431 1087.649780,374.078339 1097.443604,403.973297 
	C1107.991699,436.170685 1118.532471,468.370483 1129.043579,500.579987 
	C1139.510254,532.653809 1149.907959,564.750183 1160.387695,596.819824 
	C1170.860718,628.868958 1181.425537,660.888245 1191.899048,692.937256 
	C1202.322021,724.831238 1212.879761,756.683105 1223.014038,788.668884 
	C1233.336670,821.249329 1243.436157,853.904541 1253.217896,886.651184 
	C1260.910156,912.402466 1268.333374,938.246399 1275.202759,964.227295 
	C1281.334961,987.420166 1286.528564,1010.860840 1292.202515,1034.176025 
	C1292.547852,1035.595825 1293.475708,1036.873901 1294.638672,1039.253540 
	C1363.903931,792.575989 1446.199707,551.266602 1520.810669,307.322418 
	C1488.695923,303.367004 1456.581787,299.411682 1424.135010,295.415375 
	C1424.135010,280.999756 1424.135010,266.395233 1424.135010,250.728043 
	C1509.726562,257.310699 1595.460693,256.043884 1681.851562,251.902740 
	C1681.851562,259.375946 1681.851562,266.485199 1681.851562,273.594452 
	C1681.851562,280.584320 1681.851562,287.574158 1681.851562,295.080841 
	C1674.913452,296.395966 1668.135864,297.731689 1661.338623,298.959381 
	C1642.324097,302.393585 1623.289185,305.717957 1604.304443,309.308624 
	C1602.709229,309.610321 1600.864014,311.295410 1600.090576,312.821991 
	C1591.457153,329.862823 1582.399048,346.726593 1574.645508,364.167084 
	C1559.184204,398.944916 1547.671509,435.203033 1535.913696,471.354065 
	C1522.064453,513.936157 1508.057861,556.467224 1494.078979,599.007019 
	C1485.362671,625.531677 1476.558716,652.027527 1467.817261,678.543945 
	C1459.792969,702.885010 1451.793091,727.234009 1443.794556,751.583557 
	C1436.141113,774.882446 1428.518555,798.191406 1420.854736,821.486816 
	C1413.147949,844.913452 1405.364624,868.315063 1397.690063,891.752197 
	C1383.800537,934.169556 1370.003662,976.617310 1356.096191,1019.028809 
	C1347.388672,1045.582520 1338.497437,1072.076050 1329.781982,1098.627075 
	C1315.862915,1141.030762 1302.028931,1183.462280 1288.140747,1225.875977 
	C1285.851074,1232.868286 1283.281250,1239.775513 1281.222412,1246.833374 
	C1280.442017,1249.508423 1279.166626,1250.188110 1276.663696,1250.159424 
	C1268.498291,1250.065430 1260.329956,1250.047852 1252.165161,1250.168945 
	C1249.604248,1250.206787 1248.496826,1249.382446 1247.631104,1246.823975 
	C1239.881836,1223.919067 1231.882690,1201.098877 1224.042236,1178.224487 
	C1207.989624,1131.390381 1192.003296,1084.533569 1175.964111,1037.694824 
	C1159.978271,991.011353 1143.973145,944.334534 1127.955322,897.662048 
	C1111.990723,851.144287 1095.974976,804.643982 1080.027466,758.120361 
	C1063.974121,711.287842 1047.989990,664.431580 1031.947632,617.595276 
	C1027.231689,603.826965 1022.420898,590.091125 1017.257996,575.199280 
	C1014.341431,582.765198 1011.762756,589.290955 1009.302856,595.861145 
	C985.217651,660.192017 961.141907,724.526550 937.083923,788.867676 
	C910.939697,858.788574 884.828857,928.721924 858.681580,998.641785 
	C835.376648,1060.961426 812.050964,1123.273315 788.715393,1185.581421 
	C781.031860,1206.097168 773.201050,1226.558472 765.667847,1247.129028 
	C764.531555,1250.231812 763.045776,1251.141724 759.936279,1251.063477 
	C752.278442,1250.870850 744.606934,1250.827637 736.952209,1251.074585 
	C733.236450,1251.194336 731.236389,1249.942139 730.066833,1246.375000 
	C718.156372,1210.047241 706.143982,1173.753052 694.158813,1137.449951 
	C693.439880,1135.272339 692.708740,1133.098633 691.855164,1130.335083 
	C691.562866,1129.485596 691.376831,1129.240723 691.169067,1129.012451 
	C674.856323,1079.657104 658.541687,1030.302368 642.231323,980.946289 
	C624.840454,928.320374 607.466187,875.688904 590.061523,823.067505 
	C573.066956,771.686157 556.043640,720.314392 539.029846,668.939392 
	C538.363953,666.928772 537.665894,664.928833 536.854858,662.335693 
	C536.562927,661.485840 536.377014,661.240906 536.169067,661.012634 
	C519.106995,609.316406 502.044922,557.620117 484.854858,505.335602 
	C484.562836,504.485809 484.376892,504.240875 484.169037,504.012573 
z"/>
<path fill="#FF4057" opacity="1.000000" stroke="none" 
	d="
M484.141602,504.277832 
	C484.376892,504.240875 484.562836,504.485809 484.840668,504.948242 
	C484.674347,504.947144 484.394257,504.745148 484.141602,504.277832 
z"/>
<path fill="#FF4057" opacity="1.000000" stroke="none" 
	d="
M536.141602,661.277954 
	C536.377014,661.240906 536.562927,661.485840 536.840698,661.948364 
	C536.674377,661.947205 536.394226,661.745239 536.141602,661.277954 
z"/>
<path fill="#FF4057" opacity="1.000000" stroke="none" 
	d="
M691.141602,1129.277710 
	C691.376831,1129.240723 691.562866,1129.485596 691.840942,1129.947754 
	C691.674561,1129.946655 691.394348,1129.744751 691.141602,1129.277710 
z"/>
</svg>